<mxfile host="app.diagrams.net" agent="Mozilla/5.0 (Windows NT 10.0; Win64; x64) AppleWebKit/537.36 (KHTML, like Gecko) Chrome/129.0.0.0 Safari/537.36" version="24.7.14">
  <diagram name="Page-1" id="74e2e168-ea6b-b213-b513-2b3c1d86103e">
    <mxGraphModel dx="2723" dy="1879" grid="1" gridSize="10" guides="1" tooltips="1" connect="1" arrows="1" fold="1" page="1" pageScale="1" pageWidth="1100" pageHeight="850" background="none" math="0" shadow="0">
      <root>
        <mxCell id="0" />
        <mxCell id="1" parent="0" />
        <mxCell id="77e6c97f196da883-8" value="&lt;font style=&quot;font-size: 21px;&quot;&gt;打开软件&lt;/font&gt;" style="rounded=1;whiteSpace=wrap;html=1;shadow=0;labelBackgroundColor=none;strokeWidth=1;fontFamily=Verdana;fontSize=8;align=center;" parent="1" vertex="1">
          <mxGeometry x="200" y="20" width="210" height="60" as="geometry" />
        </mxCell>
        <mxCell id="QAkqIzvR_jrOlDkK_at3-4" value="&lt;span style=&quot;font-size: 21px;&quot;&gt;导入软件配置文件&lt;/span&gt;" style="rounded=1;whiteSpace=wrap;html=1;shadow=0;labelBackgroundColor=none;strokeWidth=1;fontFamily=Verdana;fontSize=8;align=center;glass=0;dashed=1;" vertex="1" parent="1">
          <mxGeometry x="200" y="80" width="210" height="60" as="geometry" />
        </mxCell>
        <mxCell id="QAkqIzvR_jrOlDkK_at3-6" value="&lt;span style=&quot;font-size: 21px;&quot;&gt;导入求解配置文件&lt;/span&gt;" style="rounded=1;whiteSpace=wrap;html=1;shadow=0;labelBackgroundColor=none;strokeWidth=1;fontFamily=Verdana;fontSize=8;align=center;" vertex="1" parent="1">
          <mxGeometry x="390" y="220" width="210" height="60" as="geometry" />
        </mxCell>
        <mxCell id="QAkqIzvR_jrOlDkK_at3-7" value="计算" style="rounded=1;whiteSpace=wrap;html=1;shadow=0;labelBackgroundColor=none;strokeWidth=1;fontFamily=Verdana;fontSize=21;align=center;" vertex="1" parent="1">
          <mxGeometry x="670" y="220" width="210" height="60" as="geometry" />
        </mxCell>
        <mxCell id="QAkqIzvR_jrOlDkK_at3-8" value="&lt;span style=&quot;font-size: 21px;&quot;&gt;导出求解配置文件&lt;/span&gt;" style="rounded=1;whiteSpace=wrap;html=1;shadow=0;labelBackgroundColor=none;strokeWidth=1;fontFamily=Verdana;fontSize=8;align=center;" vertex="1" parent="1">
          <mxGeometry x="50" y="220" width="210" height="60" as="geometry" />
        </mxCell>
        <mxCell id="QAkqIzvR_jrOlDkK_at3-9" value="&lt;span style=&quot;font-size: 21px;&quot;&gt;输入数据&lt;/span&gt;" style="rounded=1;whiteSpace=wrap;html=1;shadow=0;labelBackgroundColor=none;strokeWidth=1;fontFamily=Verdana;fontSize=8;align=center;" vertex="1" parent="1">
          <mxGeometry x="350" y="350" width="130" height="60" as="geometry" />
        </mxCell>
        <mxCell id="QAkqIzvR_jrOlDkK_at3-10" value="&lt;span style=&quot;font-size: 21px;&quot;&gt;结果数据&lt;/span&gt;" style="rounded=1;whiteSpace=wrap;html=1;shadow=0;labelBackgroundColor=none;strokeWidth=1;fontFamily=Verdana;fontSize=8;align=center;dashed=1;dashPattern=1 4;" vertex="1" parent="1">
          <mxGeometry x="510" y="350" width="140" height="60" as="geometry" />
        </mxCell>
        <mxCell id="QAkqIzvR_jrOlDkK_at3-12" value="&lt;span style=&quot;font-size: 21px;&quot;&gt;更新solver对象&lt;/span&gt;" style="rounded=1;whiteSpace=wrap;html=1;shadow=0;labelBackgroundColor=none;strokeWidth=1;fontFamily=Verdana;fontSize=8;align=center;" vertex="1" parent="1">
          <mxGeometry x="410" y="450" width="180" height="60" as="geometry" />
        </mxCell>
        <mxCell id="QAkqIzvR_jrOlDkK_at3-15" value="" style="edgeStyle=orthogonalEdgeStyle;rounded=0;orthogonalLoop=1;jettySize=auto;html=1;" edge="1" parent="1" source="QAkqIzvR_jrOlDkK_at3-13" target="QAkqIzvR_jrOlDkK_at3-14">
          <mxGeometry relative="1" as="geometry" />
        </mxCell>
        <mxCell id="QAkqIzvR_jrOlDkK_at3-13" value="&lt;span style=&quot;font-size: 21px;&quot;&gt;计算&lt;/span&gt;" style="rounded=1;whiteSpace=wrap;html=1;shadow=0;labelBackgroundColor=none;strokeWidth=1;fontFamily=Verdana;fontSize=8;align=center;" vertex="1" parent="1">
          <mxGeometry x="350" y="560" width="125" height="60" as="geometry" />
        </mxCell>
        <mxCell id="QAkqIzvR_jrOlDkK_at3-14" value="&lt;span style=&quot;font-size: 21px;&quot;&gt;绘制结果&lt;/span&gt;" style="rounded=1;whiteSpace=wrap;html=1;shadow=0;labelBackgroundColor=none;strokeWidth=1;fontFamily=Verdana;fontSize=8;align=center;dashed=1;dashPattern=1 4;" vertex="1" parent="1">
          <mxGeometry x="517.5" y="560" width="125" height="60" as="geometry" />
        </mxCell>
        <mxCell id="QAkqIzvR_jrOlDkK_at3-16" value="用户输入" style="rounded=1;whiteSpace=wrap;html=1;shadow=0;labelBackgroundColor=none;strokeWidth=1;fontFamily=Verdana;fontSize=21;align=center;" vertex="1" parent="1">
          <mxGeometry x="-250" y="220" width="210" height="60" as="geometry" />
        </mxCell>
        <mxCell id="QAkqIzvR_jrOlDkK_at3-22" style="edgeStyle=orthogonalEdgeStyle;rounded=0;orthogonalLoop=1;jettySize=auto;html=1;exitX=1;exitY=0.5;exitDx=0;exitDy=0;exitPerimeter=0;fontSize=18;targetPerimeterSpacing=0;strokeWidth=3;startArrow=classic;startFill=1;" edge="1" parent="1" source="QAkqIzvR_jrOlDkK_at3-18" target="QAkqIzvR_jrOlDkK_at3-19">
          <mxGeometry relative="1" as="geometry" />
        </mxCell>
        <mxCell id="QAkqIzvR_jrOlDkK_at3-18" value="内存" style="shape=cylinder3;whiteSpace=wrap;html=1;boundedLbl=1;backgroundOutline=1;size=15;fontSize=20;" vertex="1" parent="1">
          <mxGeometry x="580" y="-120" width="70" height="90" as="geometry" />
        </mxCell>
        <mxCell id="QAkqIzvR_jrOlDkK_at3-19" value="文件" style="shape=cylinder3;whiteSpace=wrap;html=1;boundedLbl=1;backgroundOutline=1;size=15;fontSize=20;" vertex="1" parent="1">
          <mxGeometry x="770" y="-120" width="70" height="90" as="geometry" />
        </mxCell>
        <mxCell id="QAkqIzvR_jrOlDkK_at3-20" value="my_data" style="text;html=1;align=center;verticalAlign=middle;whiteSpace=wrap;rounded=0;fontSize=17;" vertex="1" parent="1">
          <mxGeometry x="585" y="-160" width="60" height="30" as="geometry" />
        </mxCell>
        <mxCell id="QAkqIzvR_jrOlDkK_at3-21" value="my_data.data_dict" style="text;html=1;align=center;verticalAlign=middle;whiteSpace=wrap;rounded=0;fontSize=17;" vertex="1" parent="1">
          <mxGeometry x="730" y="-160" width="165" height="30" as="geometry" />
        </mxCell>
        <mxCell id="QAkqIzvR_jrOlDkK_at3-24" style="edgeStyle=orthogonalEdgeStyle;rounded=0;orthogonalLoop=1;jettySize=auto;html=1;exitX=1;exitY=0.5;exitDx=0;exitDy=0;exitPerimeter=0;fontSize=18;targetPerimeterSpacing=0;strokeWidth=3;startArrow=classic;startFill=1;" edge="1" parent="1" source="QAkqIzvR_jrOlDkK_at3-25" target="QAkqIzvR_jrOlDkK_at3-26">
          <mxGeometry relative="1" as="geometry" />
        </mxCell>
        <mxCell id="QAkqIzvR_jrOlDkK_at3-25" value="内存" style="shape=cylinder3;whiteSpace=wrap;html=1;boundedLbl=1;backgroundOutline=1;size=15;fontSize=20;" vertex="1" parent="1">
          <mxGeometry x="580" y="40" width="70" height="90" as="geometry" />
        </mxCell>
        <mxCell id="QAkqIzvR_jrOlDkK_at3-26" value="文件" style="shape=cylinder3;whiteSpace=wrap;html=1;boundedLbl=1;backgroundOutline=1;size=15;fontSize=20;" vertex="1" parent="1">
          <mxGeometry x="770" y="40" width="70" height="90" as="geometry" />
        </mxCell>
        <mxCell id="QAkqIzvR_jrOlDkK_at3-27" value="solver" style="text;html=1;align=center;verticalAlign=middle;whiteSpace=wrap;rounded=0;fontSize=17;" vertex="1" parent="1">
          <mxGeometry x="585" width="60" height="30" as="geometry" />
        </mxCell>
        <mxCell id="QAkqIzvR_jrOlDkK_at3-28" value="solver.well.temperature" style="text;html=1;align=center;verticalAlign=middle;whiteSpace=wrap;rounded=0;fontSize=17;" vertex="1" parent="1">
          <mxGeometry x="730" width="200" height="30" as="geometry" />
        </mxCell>
      </root>
    </mxGraphModel>
  </diagram>
</mxfile>
